<svg xmlns="http://www.w3.org/2000/svg" xmlns:xlink="http://www.w3.org/1999/xlink" viewBox="0,0,256,256" width="144px" height="144px"><g fill="#3b82f6" fill-rule="nonzero" stroke="none" stroke-width="1" stroke-linecap="butt" stroke-linejoin="miter" stroke-miterlimit="10" stroke-dasharray="" stroke-dashoffset="0" font-family="none" font-weight="none" font-size="none" text-anchor="none" style="mix-blend-mode: normal"><g transform="scale(5.33333,5.33333)"><path d="M6,16c-3.1,3.7 -6,7.6 -6,11.1c0,2 1.7,4.9 5.9,4.9c2.3,0 4.5,-0.9 6.3,-1.6c3,-1.2 35.7,-15.1 35.7,-15.1c0.3,-0.2 0.3,-0.4 -0.1,-0.3c-0.2,0 -35.6,9.4 -35.6,9.4c-0.7,0.2 -1.4,0.3 -2.1,0.3c-3.1,0 -5.1,-1.5 -5.1,-4.7c-0.1,-1.3 0.1,-2.2 1,-4z"></path></g></g></svg>